<svg xmlns="http://www.w3.org/2000/svg" width="44.81" height="48" viewBox="0 0 44.81 48">
  <g id="Calculator" transform="translate(-143.56 -240.531)">
    <path id="Trazado_29" data-name="Trazado 29" d="M181.835,288.531h-31.74a6.524,6.524,0,0,1-6.535-6.5v-35a6.524,6.524,0,0,1,6.535-6.5h31.74a6.524,6.524,0,0,1,6.535,6.5v35A6.524,6.524,0,0,1,181.835,288.531Zm-31.74-46.143a4.659,4.659,0,0,0-4.668,4.642v35a4.66,4.66,0,0,0,4.668,4.642h31.74a4.66,4.66,0,0,0,4.668-4.642v-35a4.659,4.659,0,0,0-4.668-4.642Z" transform="translate(0 0)" fill="#3a823e"/>
    <path id="Trazado_30" data-name="Trazado 30" d="M168.508,281.823h-5.544a2.772,2.772,0,0,1-2.772-2.772h0v-3.7a2.772,2.772,0,0,1,2.772-2.772h5.544a2.773,2.773,0,0,1,2.772,2.772v3.7a2.773,2.773,0,0,1-2.772,2.772Zm-5.544-7.392a.924.924,0,0,0-.924.924v3.7a.923.923,0,0,0,.924.924h5.544a.924.924,0,0,0,.924-.924v-3.7a.924.924,0,0,0-.924-.924Z" transform="translate(0.23 0.226)" fill="#3a823e"/>
    <path id="Trazado_31" data-name="Trazado 31" d="M155.572,281.823h-5.544a2.772,2.772,0,0,1-2.772-2.772h0v-3.7a2.772,2.772,0,0,1,2.772-2.772h5.544a2.772,2.772,0,0,1,2.772,2.772v3.7a2.772,2.772,0,0,1-2.772,2.772Zm-5.544-7.392a.924.924,0,0,0-.924.924v3.7a.923.923,0,0,0,.924.924h5.544a.924.924,0,0,0,.924-.924v-3.7a.924.924,0,0,0-.924-.924Z" transform="translate(0 0.226)" fill="#3a823e"/>
    <path id="Trazado_32" data-name="Trazado 32" d="M181.443,281.823H175.9a2.772,2.772,0,0,1-2.771-2.772h0V264.267a2.772,2.772,0,0,1,2.771-2.772h5.544a2.772,2.772,0,0,1,2.772,2.772v14.784a2.772,2.772,0,0,1-2.772,2.772Zm-5.544-18.48a.924.924,0,0,0-.924.924v14.784a.924.924,0,0,0,.924.924h5.544a.923.923,0,0,0,.924-.924V264.267a.924.924,0,0,0-.924-.924Z" transform="translate(0.459 0.226)" fill="#3a823e"/>
    <path id="Trazado_33" data-name="Trazado 33" d="M168.508,270.735h-5.544a2.772,2.772,0,0,1-2.772-2.772v-3.7a2.772,2.772,0,0,1,2.772-2.772h5.544a2.773,2.773,0,0,1,2.772,2.772v3.7A2.773,2.773,0,0,1,168.508,270.735Zm-5.544-7.392a.924.924,0,0,0-.924.924v3.7a.923.923,0,0,0,.924.924h5.544a.924.924,0,0,0,.924-.924v-3.7a.924.924,0,0,0-.924-.924Z" transform="translate(0.23 0.123)" fill="#3a823e"/>
    <path id="Trazado_34" data-name="Trazado 34" d="M155.572,270.735h-5.544a2.772,2.772,0,0,1-2.772-2.772v-3.7a2.772,2.772,0,0,1,2.772-2.772h5.544a2.772,2.772,0,0,1,2.772,2.772v3.7A2.772,2.772,0,0,1,155.572,270.735Zm-5.544-7.392a.924.924,0,0,0-.924.924v3.7a.923.923,0,0,0,.924.924h5.544a.924.924,0,0,0,.924-.924v-3.7a.924.924,0,0,0-.924-.924Z" transform="translate(0 0.123)" fill="#3a823e"/>
    <path id="Trazado_35" data-name="Trazado 35" d="M181.868,257.163H150.062a2.789,2.789,0,0,1-2.806-2.772V247a2.789,2.789,0,0,1,2.806-2.772h31.805A2.789,2.789,0,0,1,184.674,247v7.392A2.789,2.789,0,0,1,181.868,257.163Zm-31.805-11.088a.929.929,0,0,0-.935.924v7.392a.93.93,0,0,0,.935.924h31.805a.93.93,0,0,0,.935-.924V247a.929.929,0,0,0-.935-.924Z" fill="#3a823e"/>
  </g>
</svg>
