<svg xmlns="http://www.w3.org/2000/svg" width="44.81" height="48" viewBox="0 0 44.81 48">
  <path id="Trazado_36" data-name="Trazado 36" d="M186.764,108.827,165.428,89.815a.948.948,0,0,0-1.305.01l-21.507,19.854a1.067,1.067,0,0,0-.073,1.457.961.961,0,0,0,.73.341.947.947,0,0,0,.657-.265l3.016-2.849v27.828a1.008,1.008,0,0,0,.983,1.031h10.844a.913.913,0,0,0,.118.025h.938l10.733.311H181.54a1.009,1.009,0,0,0,.984-1.031V107.672l2.946,2.708a.951.951,0,0,0,1.388-.1A1.068,1.068,0,0,0,186.764,108.827Zm-26.89,26.357V118.913h8.221v16.271Zm20.682.312H170.59l-.527-.016v-17.6a1.009,1.009,0,0,0-.984-1.031H158.89a1.009,1.009,0,0,0-.984,1.031V135.16h-8.994V106.5l15.876-14.533,15.767,13.892Z" transform="translate(-142.29 -89.56)" fill="#b2b2b2"/>
</svg>
