<svg xmlns="http://www.w3.org/2000/svg" width="44.807" height="48.004" viewBox="0 0 44.807 48.004">
  <g id="Grupo_1" data-name="Grupo 1" transform="translate(-143.504 -169.457)">
    <path id="Trazado_1" data-name="Trazado 1" d="M187.244,176.766h-4.963v-6.242a1.067,1.067,0,0,0-1.067-1.067H144.572a1.068,1.068,0,0,0-1.068,1.067v40.845a5.912,5.912,0,0,0,6.184,6.092l33.586-.009c1.742-.233,5.037-1.937,5.037-6.723v-32.9A1.067,1.067,0,0,0,187.244,176.766Zm-1.067,33.963c0,3.82-2.6,4.5-3.132,4.6H149.688a3.842,3.842,0,0,1-4.049-3.957V171.592h34.507v39.32a1.068,1.068,0,0,0,2.135,0V178.9h3.9Z" fill="#3a823e"/>
    <path id="Trazado_2" data-name="Trazado 2" d="M150.236,187.214H175.55a1.067,1.067,0,0,0,1.067-1.067V176.1a1.067,1.067,0,0,0-1.067-1.067H150.236a1.067,1.067,0,0,0-1.067,1.067v10.05A1.067,1.067,0,0,0,150.236,187.214Zm1.067-10.049h23.179v7.915H151.3Z" fill="#3a823e"/>
    <path id="Trazado_3" data-name="Trazado 3" d="M150.327,189.7a1.068,1.068,0,0,0-1.067,1.068v5.39a1.067,1.067,0,0,0,1.067,1.067h13.157a1.067,1.067,0,0,0,1.067-1.067v-5.39a1.068,1.068,0,0,0-1.067-1.068Zm12.09,5.391H151.394v-3.256h11.023Z" fill="#3a823e"/>
    <path id="Trazado_4" data-name="Trazado 4" d="M175.915,189.518h-8.571a1.067,1.067,0,1,0,0,2.134h8.571a1.067,1.067,0,1,0,0-2.134Z" fill="#3a823e"/>
    <path id="Trazado_5" data-name="Trazado 5" d="M175.915,195.364h-8.571a1.067,1.067,0,0,0,0,2.135h8.571a1.067,1.067,0,0,0,0-2.135Z" fill="#3a823e"/>
    <path id="Trazado_6" data-name="Trazado 6" d="M175.732,201.3H149.688a1.067,1.067,0,0,0,0,2.134h26.044a1.067,1.067,0,1,0,0-2.134Z" fill="#3a823e"/>
    <path id="Trazado_7" data-name="Trazado 7" d="M175.732,205.456H149.688a1.067,1.067,0,0,0,0,2.134h26.044a1.067,1.067,0,1,0,0-2.134Z" fill="#3a823e"/>
    <path id="Trazado_8" data-name="Trazado 8" d="M175.732,209.493H149.688a1.067,1.067,0,1,0,0,2.134h26.044a1.067,1.067,0,1,0,0-2.134Z" fill="#3a823e"/>
  </g>
</svg>
