<svg xmlns="http://www.w3.org/2000/svg" width="44.81" height="48" viewBox="0 0 44.81 48">
  <g id="Grupo_16" data-name="Grupo 16" transform="translate(-144.126 -565.324)">
    <g id="Grupo_15" data-name="Grupo 15" transform="translate(144.126 565.324)">
      <path id="Trazado_24" data-name="Trazado 24" d="M186.355,592.737a34.017,34.017,0,0,0-5.639-8.322,40.8,40.8,0,0,0-7.223-6.317l5.531-9.441a1.113,1.113,0,0,0-.239-1.417,6.751,6.751,0,0,0-4.641-1.916,11.659,11.659,0,0,0-4.208,1.018,8.5,8.5,0,0,1-2.646.728,1.764,1.764,0,0,1-.618-.1,20.686,20.686,0,0,0-6.485-1.407,9.128,9.128,0,0,0-6.529,2.814,1.133,1.133,0,0,0-.151,1.5l5.964,8.293a41.539,41.539,0,0,0-7.125,6.248,34.368,34.368,0,0,0-5.639,8.322,26.38,26.38,0,0,0-2.581,11.3c0,5.119,4.533,9.29,10.1,9.29H178.84c5.563,0,10.1-4.171,10.1-9.29A26.38,26.38,0,0,0,186.355,592.737ZM155.6,569.3c1.291-1.043,2.817-2.039,4.3-2.039a18.27,18.27,0,0,1,5.729,1.325,4.794,4.794,0,0,0,1.546.25,10.362,10.362,0,0,0,3.738-.949,9.5,9.5,0,0,1,3.294-.876,8.84,8.84,0,0,1,2.745,1.414l-5.322,9H161.315Zm23.814,42.335H153.828c-4.295,0-7.788-3.217-7.788-7.169,0-6.651,2.649-12.958,7.855-18.748a40.352,40.352,0,0,1,7.652-6.6h10.12a39.574,39.574,0,0,1,7.652,6.6c5.217,5.79,7.855,12.087,7.855,18.748C187.2,608.414,183.7,611.631,179.409,611.631Z" transform="translate(-144.126 -565.324)" fill="#3a823e"/>
      <g id="Grupo_14" data-name="Grupo 14" transform="translate(13.671 22.495)">
        <path id="Trazado_25" data-name="Trazado 25" d="M166.413,602.7a3.889,3.889,0,0,1-1.39,3.167,5.846,5.846,0,0,1-3.832,1.148,8.758,8.758,0,0,1-4-.8v-2.339a10.445,10.445,0,0,0,2.094.766,8.442,8.442,0,0,0,2.064.28,3.169,3.169,0,0,0,2.064-.559,1.858,1.858,0,0,0,.666-1.5,1.922,1.922,0,0,0-.612-1.439,9.069,9.069,0,0,0-2.522-1.4,6.668,6.668,0,0,1-2.78-1.915,4.193,4.193,0,0,1-.806-2.586,3.7,3.7,0,0,1,1.28-2.981,5.142,5.142,0,0,1,3.44-1.086,9.7,9.7,0,0,1,4.117.951l-.748,2.019a8.646,8.646,0,0,0-3.429-.849,2.548,2.548,0,0,0-1.735.522,1.756,1.756,0,0,0-.591,1.382,2.019,2.019,0,0,0,.237,1.009,2.449,2.449,0,0,0,.778.791,12.927,12.927,0,0,0,1.951.984,10.549,10.549,0,0,1,2.326,1.293,3.77,3.77,0,0,1,1.084,1.356A4.266,4.266,0,0,1,166.413,602.7Z" transform="translate(-157.19 -591.464)" fill="#3a823e"/>
        <path id="Trazado_26" data-name="Trazado 26" d="M173.915,591.681l-5.36,15.129h-2.188l5.371-15.129Z" transform="translate(-157.19 -591.464)" fill="#3a823e"/>
      </g>
    </g>
  </g>
</svg>
