<svg xmlns="http://www.w3.org/2000/svg" width="44.81" height="48" viewBox="0 0 44.81 48">
  <g id="Grupo_18" data-name="Grupo 18" transform="translate(-144.129 -655.254)">
    <path id="Trazado_27" data-name="Trazado 27" d="M179.6,655.254H153.464c-5.148,0-9.335,3.766-9.335,8.395v21.972c0,4.629,4.187,8.4,9.335,8.4a2.451,2.451,0,0,1,2.568,2.309v3.568a3.365,3.365,0,0,0,2.306,3.1,4.1,4.1,0,0,0,1.433.258,3.946,3.946,0,0,0,2.638-.986l6.673-6a9,9,0,0,1,6.043-2.251H179.6c4.829,0,8.812-3.314,9.287-7.544a1.878,1.878,0,0,0,.048-.425v-22.4C188.939,659.02,184.751,655.254,179.6,655.254Zm1.3,35.8h-5.821a14.774,14.774,0,0,0-9.989,3.762l-5.434,4.941v-1.67c0-3.878-3.47-7.033-7.735-7.033a4.786,4.786,0,0,1-4.991-4.537V662.507a4.786,4.786,0,0,1,4.991-4.537H180.9a4.785,4.785,0,0,1,4.99,4.537V686.52A4.785,4.785,0,0,1,180.9,691.058Z" transform="translate(0)" fill="#b2b2b2"/>
    <g id="Grupo_17" data-name="Grupo 17" transform="translate(156.964 662.658)">
      <path id="Trazado_28" data-name="Trazado 28" d="M161.088,682.145v-1.118a6.6,6.6,0,0,1,.7-3.2,9.1,9.1,0,0,1,2.447-2.638,13.577,13.577,0,0,0,2.681-2.55,3.826,3.826,0,0,0,.6-2.167,2.725,2.725,0,0,0-.978-2.253,4.395,4.395,0,0,0-2.814-.787,9.691,9.691,0,0,0-3.075.472,22.019,22.019,0,0,0-2.76,1.135l-1.467-3.074a15.368,15.368,0,0,1,7.6-1.975,8.222,8.222,0,0,1,5.435,1.678,5.706,5.706,0,0,1,2.008,4.63,6.642,6.642,0,0,1-.383,2.332,6.722,6.722,0,0,1-1.163,1.948,18.775,18.775,0,0,1-2.681,2.411,10.3,10.3,0,0,0-2.176,2.114,4.057,4.057,0,0,0-.549,2.253v.787Zm-.716,5.573q0-2.639,2.569-2.638a2.547,2.547,0,0,1,1.921.69,2.7,2.7,0,0,1,.665,1.948,2.779,2.779,0,0,1-.673,1.965,2.9,2.9,0,0,1-3.817.018A2.781,2.781,0,0,1,160.372,687.718Z" transform="translate(-156.424 -663.992)" fill="#b2b2b2"/>
    </g>
  </g>
</svg>
