<svg xmlns="http://www.w3.org/2000/svg" width="44.81" height="48" viewBox="0 0 44.81 48">
  <g id="Grupo_13" data-name="Grupo 13" transform="translate(-144.078 -493.111)">
    <g id="Grupo_4" data-name="Grupo 4" transform="translate(144.078 493.111)">
      <g id="Grupo_3" data-name="Grupo 3">
        <path id="Trazado_19" data-name="Trazado 19" d="M185.131,522.645l-4.332-1.534a.807.807,0,0,0-.229-.627l-1.565-1.6V516.2c.165-.133.328-.269.486-.414A9.486,9.486,0,0,0,182.6,508.8v-2.146a9.247,9.247,0,0,0,.9-3.977v-8.749a.829.829,0,0,0-.841-.817H170.077a7.934,7.934,0,0,0-8.029,7.816v1.75a9.248,9.248,0,0,0,.9,3.977V508.5a9.891,9.891,0,0,0,3.593,7.631v2.751l-1.565,1.6a.807.807,0,0,0-.229.627l-5.171,1.831a4.492,4.492,0,0,0-1.039.53l-.812-.395a6.371,6.371,0,0,0,3.22-2.536.8.8,0,0,0,0-.732c-.607-1.179-.679-3.342-.739-5.079-.02-.579-.038-1.124-.073-1.611a7.132,7.132,0,0,0-14.256,0c-.036.487-.054,1.032-.074,1.611-.06,1.738-.132,3.9-.739,5.079a.8.8,0,0,0,0,.732,6.373,6.373,0,0,0,3.223,2.534l-2.255,1.1a3.414,3.414,0,0,0-1.954,3.079v13.041a.84.84,0,0,0,1.68,0V527.252a1.791,1.791,0,0,1,1.025-1.615l2.808-1.367.977.9a3.6,3.6,0,0,0,4.872,0l.977-.9.915.446a4.225,4.225,0,0,0-.676,2.284v13.293a.841.841,0,0,0,1.681,0V527a2.693,2.693,0,0,1,1.813-2.52l5.451-1.93,2.269,3.315a1.741,1.741,0,0,0,1.276.745c.059.005.116.008.173.008a1.756,1.756,0,0,0,1.228-.5l1.385-1.348v15.518a.841.841,0,0,0,1.681,0V524.775L175,526.123a1.754,1.754,0,0,0,1.228.5,1.68,1.68,0,0,0,.173-.008,1.737,1.737,0,0,0,1.275-.745l2.27-3.315,5.451,1.93a2.7,2.7,0,0,1,1.813,2.52v13.293a.841.841,0,0,0,1.681,0V527a4.271,4.271,0,0,0-1.243-2.994A16.847,16.847,0,0,0,185.131,522.645Zm-35.662-.872a6.052,6.052,0,0,1-2.7-1.686,8.841,8.841,0,0,0,.478-1.96,6.145,6.145,0,0,0,2.218,2.665Zm4.815,2.214a1.891,1.891,0,0,1-2.557,0l-.781-.723a1.659,1.659,0,0,0,.2-.8v-.872a6.351,6.351,0,0,0,1.856.275,6.422,6.422,0,0,0,1.855-.274v.871a1.666,1.666,0,0,0,.2.8Zm-1.278-3.756a4.5,4.5,0,0,1-4.551-4.431.83.83,0,0,0-.841-.818.9.9,0,0,0-.138.012l.007-.21c.018-.563.037-1.094.07-1.55a6.008,6.008,0,0,1,1.7-3.815,5.321,5.321,0,0,1,7.506,0,6,6,0,0,1,1.7,3.815c.034.456.051.987.071,1.549l.005.147a7.544,7.544,0,0,0-4.151-2.954,10.813,10.813,0,0,0-3.2-.493.85.85,0,0,0-.581.25l-1.517,1.531a.8.8,0,0,0,.022,1.157.857.857,0,0,0,1.188-.021l1.261-1.274c1.087.052,4.583.448,5.941,3.363A4.5,4.5,0,0,1,153.005,520.231Zm3.536,1.545V520.8a6.086,6.086,0,0,0,2.219-2.667,8.808,8.808,0,0,0,.478,1.955A6.075,6.075,0,0,1,156.541,521.776Zm8.087-13.275v-2.03a.809.809,0,0,0-.083-.356,7.677,7.677,0,0,1-.815-3.439v-1.75a6.273,6.273,0,0,1,6.348-6.181h11.738v7.93a7.677,7.677,0,0,1-.815,3.439.809.809,0,0,0-.083.356V508.8a7.759,7.759,0,0,1-2.576,5.788,8.228,8.228,0,0,1-.646.532l-.014.01a8.186,8.186,0,0,1-13.054-6.629Zm4.731,16.464a.054.054,0,0,1-.046.016.055.055,0,0,1-.043-.025l-2.613-3.817.841-.86,3.965,2.639Zm3.414-3.158-4.551-3.029v-1.527a9.649,9.649,0,0,0,3.9,1.1q.333.021.661.021a9.939,9.939,0,0,0,4.543-1.084v1.495Zm3.5,3.149a.051.051,0,0,1-.043.025.05.05,0,0,1-.046-.016l-2.1-2.047,3.965-2.639.842.861Z" transform="translate(-144.078 -493.111)" fill="#3a823e"/>
      </g>
    </g>
    <g id="Grupo_6" data-name="Grupo 6" transform="translate(147.579 528.302)">
      <g id="Grupo_5" data-name="Grupo 5">
        <path id="Trazado_20" data-name="Trazado 20" d="M148.4,528.336a.819.819,0,0,0-.819.819v11.171a.819.819,0,0,0,1.638,0V529.155A.819.819,0,0,0,148.4,528.336Z" transform="translate(-147.579 -528.336)" fill="#3a823e"/>
      </g>
    </g>
    <g id="Grupo_8" data-name="Grupo 8" transform="translate(163.035 500.765)">
      <g id="Grupo_7" data-name="Grupo 7">
        <path id="Trazado_21" data-name="Trazado 21" d="M181.292,503.353c-2.636-3.515-19.407-2.668-19.407-1.9v2.838a.819.819,0,0,0,1.638,0V502.4a.053.053,0,0,1,.043-.055,75.1,75.1,0,0,1,8.523-.112c2.553.169,6.951,1.183,8.045,2.277a.819.819,0,1,0,1.158-1.158Z" transform="translate(-161.885 -500.771)" fill="#3a823e"/>
      </g>
    </g>
    <g id="Grupo_10" data-name="Grupo 10" transform="translate(162.066 528.971)">
      <g id="Grupo_9" data-name="Grupo 9">
        <path id="Trazado_22" data-name="Trazado 22" d="M162.406,529.005a.819.819,0,0,0-.819.819v10.5a.819.819,0,0,0,1.638,0v-10.5A.819.819,0,0,0,162.406,529.005Z" transform="translate(-161.587 -529.005)" fill="#3a823e"/>
      </g>
    </g>
    <g id="Grupo_12" data-name="Grupo 12" transform="translate(181.997 528.971)">
      <g id="Grupo_11" data-name="Grupo 11">
        <path id="Trazado_23" data-name="Trazado 23" d="M181.666,529.005a.819.819,0,0,0-.819.819v10.5a.819.819,0,0,0,1.638,0v-10.5A.819.819,0,0,0,181.666,529.005Z" transform="translate(-180.847 -529.005)" fill="#3a823e"/>
      </g>
    </g>
  </g>
</svg>
