<svg xmlns="http://www.w3.org/2000/svg" width="44.81" height="48" viewBox="0 0 44.81 48">
  <g id="Grupo_2" data-name="Grupo 2" transform="translate(-143.21 -325.504)">
    <path id="Trazado_9" data-name="Trazado 9" d="M183.595,354.312a1.059,1.059,0,0,0-1.044,1.072V371.36H145.3V327.648H182.55v8.378a1.045,1.045,0,1,0,2.089,0v-9.45a1.058,1.058,0,0,0-1.044-1.072h-39.34a1.058,1.058,0,0,0-1.044,1.072v45.856a1.058,1.058,0,0,0,1.044,1.072h39.34a1.058,1.058,0,0,0,1.044-1.072V355.384A1.058,1.058,0,0,0,183.595,354.312Z" fill="#3a823e"/>
    <path id="Trazado_10" data-name="Trazado 10" d="M172.562,358.145a.9.9,0,0,0-.122.364c0,.007-.006.013-.007.02l-.746,7.363a.917.917,0,0,0,1.441.84l5.779-4.1.007-.008a.915.915,0,0,0,.256-.28l9.291-16.072c.334-.422,1.98-2.625,1.584-4.816a3.694,3.694,0,0,0-1.885-2.546,1.209,1.209,0,0,0-.125-.061,3.894,3.894,0,0,0-3.251.057,6.216,6.216,0,0,0-2.683,3.59Zm1.15,5.926.392-3.866,2.643,1.713Zm4.354-3.48-1.136-.736-2.341-1.518,8.661-14.211,3.207,1.949Zm7.544-20.052a2.023,2.023,0,0,1,1.687-.013,1.843,1.843,0,0,1,.946,1.249,4.391,4.391,0,0,1-.8,2.754l-3.38-2.055A3.844,3.844,0,0,1,185.61,340.539Z" transform="translate(-2.086 -0.702)" fill="#3a823e"/>
    <path id="Trazado_11" data-name="Trazado 11" d="M169.437,350.464H153.466a1.1,1.1,0,1,0,0,2.194h15.971a1.1,1.1,0,1,0,0-2.194Z" transform="translate(-0.665 -0.595)" fill="#3a823e"/>
    <path id="Trazado_12" data-name="Trazado 12" d="M169.437,356.271H153.466a1.1,1.1,0,1,0,0,2.194h15.971a1.1,1.1,0,1,0,0-2.194Z" transform="translate(-0.665 -0.734)" fill="#3a823e"/>
    <path id="Trazado_13" data-name="Trazado 13" d="M169.437,362.079H153.466a1.1,1.1,0,1,0,0,2.194h15.971a1.1,1.1,0,1,0,0-2.194Z" transform="translate(-0.665 -0.872)" fill="#3a823e"/>
    <path id="Trazado_14" data-name="Trazado 14" d="M150.34,350.464h-1.117a1.1,1.1,0,1,0,0,2.194h1.117a1.1,1.1,0,1,0,0-2.194Z" transform="translate(0 -0.595)" fill="#3a823e"/>
    <path id="Trazado_15" data-name="Trazado 15" d="M150.34,356.271h-1.117a1.1,1.1,0,1,0,0,2.194h1.117a1.1,1.1,0,1,0,0-2.194Z" transform="translate(0 -0.734)" fill="#3a823e"/>
    <path id="Trazado_16" data-name="Trazado 16" d="M150.34,362.079h-1.117a1.1,1.1,0,1,0,0,2.194h1.117a1.1,1.1,0,1,0,0-2.194Z" transform="translate(0 -0.872)" fill="#3a823e"/>
    <path id="Trazado_17" data-name="Trazado 17" d="M169.213,367.886h-6.924a1.1,1.1,0,1,0,0,2.194h6.924a1.1,1.1,0,1,0,0-2.194Z" transform="translate(-0.993 -1.119)" fill="#3a823e"/>
    <path id="Trazado_18" data-name="Trazado 18" d="M165.3,331.057a8.555,8.555,0,1,0,8.555,8.555A8.565,8.565,0,0,0,165.3,331.057Zm-4.1,13.712a4.95,4.95,0,0,1,4-2.022,4.67,4.67,0,0,1,3.94,2.235,6.5,6.5,0,0,1-7.939-.213Zm4-3.964a1.785,1.785,0,1,1,1.785-1.785A1.787,1.787,0,0,1,165.2,340.8Zm5.339,2.8A6.924,6.924,0,0,0,168,341.443a3.723,3.723,0,1,0-5.628-.031,7.14,7.14,0,0,0-2.521,1.947,6.631,6.631,0,1,1,10.687.251Z" transform="translate(-0.948)" fill="#3a823e"/>
  </g>
</svg>
