<?xml version="1.0" encoding="utf-8"?>
<!-- Generator: Adobe Illustrator 24.0.1, SVG Export Plug-In . SVG Version: 6.00 Build 0)  -->
<svg version="1.1" id="Capa_1" xmlns="http://www.w3.org/2000/svg" xmlns:xlink="http://www.w3.org/1999/xlink" x="0px" y="0px"
	 viewBox="0 0 512 512" style="enable-background:new 0 0 512 512;" xml:space="preserve">
<style type="text/css">
	.st0{fill:#158C30;}
	.st1{fill:#158C30;stroke:#158C30;stroke-width:19.93;stroke-miterlimit:10;}
	.st2{fill:#FFFFFF;}
</style>
<g id="portafolio" transform="translate(-0.007)">
	<rect x="16.9" y="15.8" class="st0" width="388.4" height="479.8"/>
	<g id="Grupo_33">
		<g id="Grupo_32">
			<path id="Trazado_152" class="st0" d="M414,148.8c5.5,0,10-4.5,10-10V30c0-16.6-13.4-30-30-30H30C13.4,0,0,13.4,0,30v452
				c0,16.6,13.4,30,30,30h364c16.6,0,30-13.4,30-30v-73.7c0-5.5-4.5-10-10-10s-10,4.5-10,10V482c0,5.5-4.5,10-10,10H30
				c-5.5,0-10-4.5-10-10V30c0-5.5,4.5-10,10-10h364c5.5,0,10,4.5,10,10v108.8C404,144.3,408.5,148.8,414,148.8z"/>
			<line class="st1" x1="414.1" y1="115.1" x2="414.1" y2="425"/>
		</g>
	</g>
	<g id="Grupo_35">
		<g id="Grupo_34">
			<path id="Trazado_153" class="st2" d="M212,54c-50.8,0-92,41.1-92,91.9c0,25.3,10.4,49.6,28.9,67c0.3,0.4,0.7,0.7,1.1,1
				c35.1,32.2,89,32.2,124.1,0c0.4-0.3,0.7-0.6,1.1-1c37-34.8,38.7-93,3.8-130C261.6,64.4,237.4,54,212,54z M212,218
				c-15.7,0-31-5.1-43.5-14.7c13.6-24,44.1-32.4,68.2-18.8c7.9,4.5,14.4,11,18.8,18.8C243,212.9,227.7,218,212,218z M196,142v-6.5
				c0-8.8,7.2-16,16-16s16,7.2,16,16v6.5c0,8.8-7.2,16-16,16S196,150.8,196,142z M269.9,188.7c-7.3-10.8-17.5-19.4-29.5-24.7
				c4.9-6.3,7.5-14,7.5-22v-6.5c0-19.9-16.1-36-36-36s-36,16.1-36,36v6.5c0,8,2.6,15.7,7.5,22c-12,5.3-22.2,13.9-29.5,24.7
				c-23.6-32-16.8-77.1,15.2-100.7s77.1-16.8,100.7,15.2C288.7,128.6,288.7,163.3,269.9,188.7L269.9,188.7z"/>
		</g>
	</g>
	<g id="Grupo_37">
		<g id="Grupo_36">
			<path id="Trazado_154" class="st2" d="M239,438h-54c-5.5,0-10,4.5-10,10s4.5,10,10,10h54c5.5,0,10-4.5,10-10S244.5,438,239,438z"
				/>
		</g>
	</g>
	<g id="Grupo_39">
		<g id="Grupo_38">
			<path id="Trazado_155" class="st2" d="M315.2,382h-188c-7.3,0-13.2,4.5-13.2,10s5.9,10,13.2,10h188c7.3,0,13.2-4.5,13.2-10
				S322.6,382,315.2,382z"/>
		</g>
	</g>
	<g id="Grupo_41">
		<g id="Grupo_40">
			<path id="Trazado_156" class="st2" d="M315.2,326h-188c-7.3,0-13.2,4.5-13.2,10s5.9,10,13.2,10h188c7.3,0,13.2-4.5,13.2-10
				S322.6,326,315.2,326z"/>
		</g>
	</g>
	<g id="Grupo_43">
		<g id="Grupo_42">
			<path id="Trazado_157" class="st2" d="M88.4,272.9c-3.9-3.9-10.2-3.9-14.1,0s-3.9,10.2,0,14.1c3.9,3.9,10.2,3.9,14.1,0
				c1.9-1.9,2.9-4.4,2.9-7.1C91.3,277.3,90.2,274.8,88.4,272.9z"/>
		</g>
	</g>
	<g id="Grupo_45">
		<g id="Grupo_44">
			<path id="Trazado_158" class="st2" d="M88.4,328.9c-3.9-3.9-10.2-3.9-14.1,0s-3.9,10.2,0,14.1c3.9,3.9,10.2,3.9,14.1,0
				c1.9-1.9,2.9-4.4,2.9-7.1C91.3,333.3,90.2,330.8,88.4,328.9z"/>
		</g>
	</g>
	<g id="Grupo_47">
		<g id="Grupo_46">
			<path id="Trazado_159" class="st2" d="M88.4,384.9c-3.9-3.9-10.2-3.9-14.1,0s-3.9,10.2,0,14.1c3.9,3.9,10.2,3.9,14.1,0
				c1.9-1.9,2.9-4.4,2.9-7.1C91.3,389.3,90.2,386.8,88.4,384.9z"/>
		</g>
	</g>
	<g id="Grupo_49">
		<g id="Grupo_48">
			<path id="Trazado_160" class="st2" d="M315.2,270h-188c-7.3,0-13.2,4.5-13.2,10s5.9,10,13.2,10h188c7.3,0,13.2-4.5,13.2-10
				S322.6,270,315.2,270z"/>
		</g>
	</g>
</g>
</svg>
