<svg id="Capa_1" data-name="Capa 1" xmlns="http://www.w3.org/2000/svg" viewBox="0 0 44.81 48"><defs><style>.cls-1{fill:#3a823e;}</style></defs><title>portafolio</title><g id="portafolio"><g id="Grupo_33" data-name="Grupo 33"><g id="Grupo_32" data-name="Grupo 32"><path id="Trazado_152" data-name="Trazado 152" class="cls-1" d="M36.23,14a.91.91,0,0,0,.88-.94V2.81A2.73,2.73,0,0,0,34.48,0H2.63A2.73,2.73,0,0,0,0,2.81V45.19A2.73,2.73,0,0,0,2.63,48H34.48a2.73,2.73,0,0,0,2.63-2.81V38.28a.88.88,0,1,0-1.75,0v6.91a.91.91,0,0,1-.88.93H2.63a.91.91,0,0,1-.88-.93V2.81a.91.91,0,0,1,.88-.93H34.48a.91.91,0,0,1,.88.93V13A.91.91,0,0,0,36.23,14Z" transform="translate(0 0)"/></g></g><g id="Grupo_35" data-name="Grupo 35"><g id="Grupo_34" data-name="Grupo 34"><path id="Trazado_153" data-name="Trazado 153" class="cls-1" d="M18.55,5.06c-4.44,0-8,3.86-8,8.62A9,9,0,0,0,13,20l.09.09a7.64,7.64,0,0,0,10.86,0l.1-.09a9.08,9.08,0,0,0,.34-12.19A7.84,7.84,0,0,0,18.55,5.06Zm0,15.38a6,6,0,0,1-3.8-1.38,4.22,4.22,0,0,1,6-1.76,4.58,4.58,0,0,1,1.65,1.76A6,6,0,0,1,18.55,20.44Zm-1.4-7.13V12.7a1.41,1.41,0,1,1,2.81,0v.61a1.41,1.41,0,1,1-2.81,0Zm6.48,4.38a6.26,6.26,0,0,0-2.58-2.32,3.56,3.56,0,0,0,.66-2.06V12.7a3.27,3.27,0,0,0-3.16-3.37A3.27,3.27,0,0,0,15.4,12.7v.61a3.56,3.56,0,0,0,.66,2.06,6.26,6.26,0,0,0-2.58,2.32,7.08,7.08,0,0,1,1.33-9.44,6,6,0,0,1,8.82,1.43,7.14,7.14,0,0,1,0,8Z" transform="translate(0 0)"/></g></g><g id="Grupo_37" data-name="Grupo 37"><g id="Grupo_36" data-name="Grupo 36"><path id="Trazado_154" data-name="Trazado 154" class="cls-1" d="M23.28,41.06H18.55a.94.94,0,0,0,0,1.88h4.73a.94.94,0,0,0,0-1.88Z" transform="translate(0 0)"/></g></g><g id="Grupo_39" data-name="Grupo 39"><g id="Grupo_38" data-name="Grupo 38"><path id="Trazado_155" data-name="Trazado 155" class="cls-1" d="M23.28,35.81H10.85a.94.94,0,0,0,0,1.88H23.28a.94.94,0,0,0,0-1.88Z" transform="translate(0 0)"/></g></g><g id="Grupo_41" data-name="Grupo 41"><g id="Grupo_40" data-name="Grupo 40"><path id="Trazado_156" data-name="Trazado 156" class="cls-1" d="M23.28,30.56H10.85a.94.94,0,0,0,0,1.88H23.28a.94.94,0,0,0,0-1.88Z" transform="translate(0 0)"/></g></g><g id="Grupo_43" data-name="Grupo 43"><g id="Grupo_42" data-name="Grupo 42"><path id="Trazado_157" data-name="Trazado 157" class="cls-1" d="M7.73,25.59a.82.82,0,0,0-1.23,0,1,1,0,0,0,0,1.32.82.82,0,0,0,1.23,0,1,1,0,0,0,0-1.32Z" transform="translate(0 0)"/></g></g><g id="Grupo_45" data-name="Grupo 45"><g id="Grupo_44" data-name="Grupo 44"><path id="Trazado_158" data-name="Trazado 158" class="cls-1" d="M7.73,30.84a.82.82,0,0,0-1.23,0,1,1,0,0,0,0,1.32.82.82,0,0,0,1.23,0,1,1,0,0,0,0-1.32Z" transform="translate(0 0)"/></g></g><g id="Grupo_47" data-name="Grupo 47"><g id="Grupo_46" data-name="Grupo 46"><path id="Trazado_159" data-name="Trazado 159" class="cls-1" d="M7.73,36.09a.82.82,0,0,0-1.23,0,1,1,0,0,0,0,1.32.82.82,0,0,0,1.23,0,1,1,0,0,0,0-1.32Z" transform="translate(0 0)"/></g></g><g id="Grupo_49" data-name="Grupo 49"><g id="Grupo_48" data-name="Grupo 48"><path id="Trazado_160" data-name="Trazado 160" class="cls-1" d="M23.28,25.31H10.85a.94.94,0,0,0,0,1.88H23.28a.94.94,0,0,0,0-1.88Z" transform="translate(0 0)"/></g></g><g id="Grupo_51" data-name="Grupo 51"><g id="Grupo_50" data-name="Grupo 50"><path id="Trazado_161" data-name="Trazado 161" class="cls-1" d="M43,12.22a3.55,3.55,0,0,0-5,1.44l-11,20.43a.94.94,0,0,0-.11.37l-.78,7.44a.92.92,0,0,0,.77,1,.83.83,0,0,0,.62-.18l5.63-4.43A1.09,1.09,0,0,0,33.3,38l11-20.43A4.1,4.1,0,0,0,43,12.22ZM28,40l.41-3.88L31,37.66Zm4.22-3.69-3.34-2.06,8.84-16.4,3.33,2.06ZM42.8,16.66l-.86,1.6L38.61,16.2l.86-1.6a1.85,1.85,0,0,1,2.63-.75,2.14,2.14,0,0,1,.7,2.81Z" transform="translate(0 0)"/></g></g></g></svg>