<svg id="Capa_1" data-name="Capa 1" xmlns="http://www.w3.org/2000/svg" viewBox="0 0 44.81 48"><defs><style>.cls-1{fill:#3a823e;}</style></defs><title>referir</title><path id="referir" class="cls-1" d="M21.8,26.4h.86A18.27,18.27,0,0,1,31.6,29,1.69,1.69,0,0,0,34,28.26a1.94,1.94,0,0,0-.68-2.55,21.61,21.61,0,0,0-3.93-1.84,13.1,13.1,0,0,0,4.78-10.21c0-7-5.34-12.75-11.91-12.75s-11.9,5.72-11.9,12.75a13.05,13.05,0,0,0,4.78,10.21A23.9,23.9,0,0,0,0,42a5.71,5.71,0,0,0,4.11,6.75,5,5,0,0,0,1.09.12H18.83a1.88,1.88,0,0,0,0-3.75H5.15a1.73,1.73,0,0,1-1.4-.71,2.07,2.07,0,0,1-.37-1.64C5.2,33.45,12.9,26.62,21.8,26.4Zm-8-12.74c0-5,3.76-9,8.4-9s8.41,4,8.41,9a8.76,8.76,0,0,1-8,9h-.83A8.77,8.77,0,0,1,13.84,13.66ZM44.65,35.77a4.79,4.79,0,0,1-1.29,3.31l-3.25,3.47a1.67,1.67,0,0,1-2.48,0,2,2,0,0,1,0-2.65l0,0,2.18-2.32H29.9a3.81,3.81,0,0,0,0,7.59,1.88,1.88,0,0,1,0,3.75,6.69,6.69,0,0,1-5-2.22A7.94,7.94,0,0,1,25,36a6.8,6.8,0,0,1,4.94-2.18h9.76l-2-2.14a2,2,0,0,1,0-2.65,1.66,1.66,0,0,1,2.47,0l3.25,3.44A4.8,4.8,0,0,1,44.65,35.77Z" transform="translate(0.16 -0.91)"/></svg>