<svg id="usuario" xmlns="http://www.w3.org/2000/svg" width="427.164" height="512.004" viewBox="0 0 427.164 512.004">
  <path id="Trazado_223" data-name="Trazado 223" d="M210.352,246.633c33.883,0,63.223-12.152,87.2-36.129s36.125-53.3,36.125-87.191S321.52,60.1,297.543,36.121,244.23,0,210.352,0,147.133,12.152,123.16,36.125,87.031,89.434,87.031,123.313s12.156,63.223,36.133,87.2S176.477,246.633,210.352,246.633Zm0,0" fill="#158c30"/>
  <path id="Trazado_224" data-name="Trazado 224" d="M426.129,393.7a304.594,304.594,0,0,0-4.148-32.352,254.892,254.892,0,0,0-7.957-32.527,160.662,160.662,0,0,0-13.371-30.336,114.478,114.478,0,0,0-20.164-26.277,88.9,88.9,0,0,0-28.965-18.2,100.1,100.1,0,0,0-36.977-6.691c-5.227,0-10.281,2.145-20.043,8.5-6.008,3.918-13.035,8.449-20.879,13.461-6.707,4.273-15.793,8.277-27.016,11.9a104.9,104.9,0,0,1-66.086,0c-11.211-3.621-20.3-7.625-27-11.9-7.77-4.965-14.8-9.5-20.9-13.469-9.75-6.355-14.809-8.5-20.035-8.5a99.975,99.975,0,0,0-36.973,6.7,88.827,88.827,0,0,0-28.969,18.2A114.488,114.488,0,0,0,26.5,298.488a160.976,160.976,0,0,0-13.371,30.34,255.5,255.5,0,0,0-7.953,32.523,303.518,303.518,0,0,0-4.148,32.363C.344,403.512,0,413.68,0,423.949c0,26.727,8.5,48.363,25.25,64.32C41.8,504.016,63.691,512,90.316,512H336.848c26.625,0,48.512-7.984,65.063-23.734,16.758-15.945,25.254-37.586,25.254-64.324C427.16,413.629,426.813,403.453,426.129,393.7Zm0,0" fill="#158c30"/>
</svg>
